<svg width="24" height="16" viewBox="0 0 24 16" fill="none" xmlns="http://www.w3.org/2000/svg">
<path fill-rule="evenodd" clip-rule="evenodd" d="M22.0394 2.25827C22.1991 1.73633 22.0394 1.35673 21.3323 1.35673H18.9828C18.3897 1.35673 18.116 1.68888 17.9563 2.04475C17.9563 2.04475 16.7473 5.08152 15.0593 7.05068C14.5118 7.62008 14.2609 7.80988 13.9644 7.80988C13.8047 7.80988 13.5994 7.62008 13.5994 7.09813V2.23455C13.5994 1.6177 13.4169 1.33301 12.9151 1.33301H9.21973C8.85475 1.33301 8.62665 1.6177 8.62665 1.9024C8.62665 2.49552 9.47065 2.63787 9.56189 4.29861V7.90477C9.56189 8.68769 9.42503 8.83004 9.12848 8.83004C8.3301 8.83004 6.39118 5.76954 5.22782 2.282C4.99971 1.59398 4.77161 1.33301 4.17852 1.33301H1.80619C1.12187 1.33301 1.00781 1.66515 1.00781 2.02103C1.00781 2.66159 1.80619 5.88817 4.72598 10.1586C6.66491 13.0768 9.42502 14.6426 11.9114 14.6426C13.4169 14.6426 13.5994 14.2867 13.5994 13.6936V11.4872C13.5994 10.7755 13.7363 10.6569 14.2153 10.6569C14.5575 10.6569 15.1734 10.8467 16.5648 12.2464C18.1616 13.9071 18.4353 14.6663 19.3249 14.6663H21.6745C22.3588 14.6663 22.6781 14.3105 22.4957 13.6225C22.2904 12.9344 21.5148 11.938 20.5111 10.7518C19.9636 10.0875 19.1425 9.35199 18.8915 8.99612C18.5494 8.52162 18.6406 8.33182 18.8915 7.90477C18.8687 7.90477 21.7429 3.68176 22.0394 2.25827Z" stroke="#7D7D7D"/>
</svg>
