<svg width="21" height="19" viewBox="0 0 21 19" fill="none" xmlns="http://www.w3.org/2000/svg">
<path d="M0.797036 8.67696L0.788631 8.67373L0.780114 8.6708C0.774872 8.66899 0.774114 8.6685 0.77103 8.66359C0.765535 8.65485 0.757812 8.6353 0.757812 8.60757C0.757812 8.57985 0.765535 8.5603 0.77103 8.55155C0.774114 8.54665 0.774872 8.54615 0.780115 8.54435L0.791582 8.5404L0.802844 8.53591L18.6959 1.39465L16.6417 3.39993L6.6983 9.60732C6.04842 9.90449 5.82621 10.6834 6.14422 11.3082L7.08713 14.8753C7.13238 15.0566 7.23273 15.2202 7.38963 15.3323C7.54474 15.4431 7.72428 15.4811 7.88805 15.4658C8.18613 15.4378 8.53065 15.2034 8.5503 14.7889L8.78734 12.8324L8.79097 12.8024V12.7722C8.79097 12.5618 8.9133 12.3549 9.125 12.1354L17.2706 4.1835C17.2951 4.16555 17.3142 4.14964 17.3241 4.14143C17.3252 4.14052 17.3262 4.1397 17.327 4.13898C17.3611 4.11083 17.4013 4.07578 17.4448 4.03692C17.5325 3.95861 17.6457 3.85394 17.7736 3.73379C18.0299 3.49289 18.3533 3.18173 18.6659 2.87665C18.9782 2.57175 19.2821 2.27043 19.499 2.04935C19.6063 1.93997 19.6971 1.84537 19.7575 1.77861C19.783 1.75037 19.8198 1.70893 19.8481 1.66932C19.8558 1.65845 19.8707 1.63711 19.8857 1.60952C19.8932 1.5957 19.9053 1.57205 19.9167 1.54144C19.9259 1.5166 19.9474 1.45417 19.9484 1.37126C19.9494 1.28348 19.9251 1.11333 19.7714 0.982945C19.7666 0.978883 19.7618 0.974956 19.757 0.971161L20.2236 0.784918C20.2265 0.786847 20.2302 0.789716 20.2346 0.793904C20.2474 0.806189 20.2588 0.823484 20.2652 0.842128C20.2711 0.859142 20.2715 0.872784 20.2697 0.882984C20.2696 0.883346 20.2696 0.883704 20.2695 0.884057L16.7533 18.1981L16.7533 18.1981L16.7525 18.2025C16.7495 18.2179 16.7446 18.2245 16.7418 18.2277C16.738 18.232 16.7317 18.2368 16.7226 18.2402C16.7132 18.2436 16.7035 18.2444 16.6951 18.2433C16.6878 18.2422 16.6797 18.2395 16.6701 18.2321L16.6701 18.232L16.6646 18.2279L11.9511 14.6836C11.4891 14.3281 10.8084 14.2621 10.3499 14.7133L7.73938 16.9169C7.71951 16.9311 7.69877 16.9398 7.67987 16.944C7.67196 16.9458 7.66504 16.9467 7.65922 16.947L7.65798 16.9406L7.65068 16.9164L5.81225 10.8137L5.74161 10.5792L5.51304 10.4913L0.797036 8.67696Z" stroke="#7D7D7D"/>
</svg>
