<svg width="26" height="26" viewBox="0 0 26 26" fill="none" xmlns="http://www.w3.org/2000/svg">
<path fill-rule="evenodd" clip-rule="evenodd" d="M10 23C11.1046 23 12 22.1046 12 21C12 19.8954 11.1046 19 10 19C8.89543 19 8 19.8954 8 21C8 22.1046 8.89543 23 10 23Z" stroke="#F5F5F5" stroke-linecap="round" stroke-linejoin="round"/>
<path fill-rule="evenodd" clip-rule="evenodd" d="M20 23C21.1046 23 22 22.1046 22 21C22 19.8954 21.1046 19 20 19C18.8954 19 18 19.8954 18 21C18 22.1046 18.8954 23 20 23Z" stroke="#F5F5F5" stroke-linecap="round" stroke-linejoin="round"/>
<path d="M7.24545 7.33323H23L21.4727 14.6044C21.3011 15.4279 20.5351 16.0158 19.6545 15.9997H10.0455C9.1268 16.0071 8.34667 15.3601 8.22727 14.4917L6.84545 4.50796C6.72693 3.64617 5.95719 3.00132 5.04545 3H3" stroke="#F5F5F5" stroke-linecap="round" stroke-linejoin="round"/>
</svg>
